<svg xmlns="http://www.w3.org/2000/svg" width="15.93cm" height="14.82cm" viewBox="0 0 602 560" role="img">
<defs><marker id="m-arrow-4C566A" viewBox="0 0 10 10" refX="9" refY="5" markerWidth="7" markerHeight="7" orient="auto-start-reverse"><path d="M0,0 L10,5 L0,10 z" fill="#4C566A"/></marker><marker id="m-arrow-C06B47" viewBox="0 0 10 10" refX="9" refY="5" markerWidth="7" markerHeight="7" orient="auto-start-reverse"><path d="M0,0 L10,5 L0,10 z" fill="#C06B47"/></marker></defs>
<g font-family="Inter, 'Segoe UI', 'Helvetica Neue', Helvetica, Arial, sans-serif">
<rect width="602" height="560" fill="#FFFFFF"/>
<rect x="6.0" y="6.0" width="590.0" height="440.0" rx="4" fill="#FFFFFF" stroke="#4C566A" stroke-width="1.5"/>
<rect x="6.0" y="6.0" width="28.0" height="28.0" rx="0" fill="#4C566A" stroke="none" stroke-width="1.2"/>
<g transform="translate(11.0,11.0) scale(0.7500)" fill="none" stroke="#FFFFFF" stroke-width="2.40" stroke-linecap="round" stroke-linejoin="round"><rect x="4" y="5" width="16" height="10.5" rx="1.2"/><path d="M2 19h20"/></g>
<text x="44.0" y="24.5" font-size="12.5" font-weight="600" fill="#2E3440" text-anchor="start">Developer laptop</text>
<text x="161.6" y="24.5" font-size="11" font-weight="400" fill="#6B7385" text-anchor="start">Windows 11 · 16 GB RAM · no GPU</text>
<rect x="20.0" y="46.0" width="562.0" height="388.0" rx="4" fill="#FFFFFF" stroke="#4C566A" stroke-width="1.5" stroke-dasharray="6 4"/>
<rect x="20.0" y="46.0" width="28.0" height="28.0" rx="0" fill="#4C566A" stroke="none" stroke-width="1.2"/>
<g transform="translate(25.0,51.0) scale(0.7500)" fill="none" stroke="#FFFFFF" stroke-width="2.40" stroke-linecap="round" stroke-linejoin="round"><path d="M12 3l8 4.5v9L12 21l-8-4.5v-9z"/><path d="M4 7.5l8 4.5 8-4.5M12 12v9"/></g>
<text x="58.0" y="64.5" font-size="12.5" font-weight="600" fill="#2E3440" text-anchor="start">Docker Desktop</text>
<text x="168.9" y="64.5" font-size="11" font-weight="400" fill="#6B7385" text-anchor="start">WSL 2 · 10 GB limit</text>
<rect x="34.0" y="86.0" width="534.0" height="254.0" rx="4" fill="#5E81AC" fill-opacity="0.06" stroke="#5E81AC" stroke-width="1.5" stroke-dasharray="6 4"/>
<rect x="34.0" y="86.0" width="28.0" height="28.0" rx="0" fill="#5E81AC" stroke="none" stroke-width="1.2"/>
<g transform="translate(39.0,91.0) scale(0.7500)" fill="none" stroke="#FFFFFF" stroke-width="2.40" stroke-linecap="round" stroke-linejoin="round"><circle cx="12" cy="5" r="2"/><circle cx="5" cy="19" r="2"/><circle cx="19" cy="19" r="2"/><path d="M12 7v5M12 12l-6 5.3M12 12l6 5.3"/></g>
<text x="72.0" y="104.5" font-size="12.5" font-weight="600" fill="#2E3440" text-anchor="start">Compose project nabz</text>
<rect x="48.0" y="126.0" width="160.0" height="88.0" rx="6" fill="#FFFFFF" stroke="#88C0D0" stroke-width="1.3"/>
<rect x="58.0" y="136.0" width="24.0" height="24.0" rx="5" fill="#4F97AE" stroke="none" stroke-width="1.2"/>
<g transform="translate(62.0,140.0) scale(0.6667)" fill="none" stroke="#FFFFFF" stroke-width="2.70" stroke-linecap="round" stroke-linejoin="round"><rect x="3" y="4" width="18" height="16" rx="2"/><path d="M3 9h18"/><path d="M6 6.5h.01M8.5 6.5h.01"/></g>
<text x="90.0" y="153.0" font-size="12" font-weight="700" fill="#2E3440" text-anchor="start" font-family="'JetBrains Mono', Consolas, 'Courier New', monospace">web</text>
<text x="60.0" y="178.0" font-size="10" font-weight="400" fill="#4C566A" text-anchor="start">node:22-alpine · Vite</text>
<text x="60.0" y="193.0" font-size="10" font-weight="400" fill="#4C566A" text-anchor="start">127.0.0.1:5173</text>
<rect x="222.0" y="126.0" width="160.0" height="88.0" rx="6" fill="#FFFFFF" stroke="#5E81AC" stroke-width="1.3"/>
<rect x="232.0" y="136.0" width="24.0" height="24.0" rx="5" fill="#5E81AC" stroke="none" stroke-width="1.2"/>
<g transform="translate(236.0,140.0) scale(0.6667)" fill="none" stroke="#FFFFFF" stroke-width="2.70" stroke-linecap="round" stroke-linejoin="round"><path d="M8 7l-5 5 5 5M16 7l5 5-5 5M13.5 5l-3 14"/></g>
<text x="264.0" y="153.0" font-size="12" font-weight="700" fill="#2E3440" text-anchor="start" font-family="'JetBrains Mono', Consolas, 'Courier New', monospace">api</text>
<text x="234.0" y="178.0" font-size="10" font-weight="400" fill="#4C566A" text-anchor="start">python:3.12 + uv · FastAPI</text>
<text x="234.0" y="193.0" font-size="10" font-weight="400" fill="#4C566A" text-anchor="start">127.0.0.1:8000</text>
<rect x="396.0" y="126.0" width="160.0" height="88.0" rx="6" fill="#FFFFFF" stroke="#5E81AC" stroke-width="1.3"/>
<rect x="406.0" y="136.0" width="24.0" height="24.0" rx="5" fill="#5E81AC" stroke="none" stroke-width="1.2"/>
<g transform="translate(410.0,140.0) scale(0.6667)" fill="none" stroke="#FFFFFF" stroke-width="2.70" stroke-linecap="round" stroke-linejoin="round"><circle cx="12" cy="12" r="3.2"/><path d="M12 2.5v3M12 18.5v3M2.5 12h3M18.5 12h3M5.3 5.3l2.1 2.1M16.6 16.6l2.1 2.1M5.3 18.7l2.1-2.1M16.6 7.4l2.1-2.1"/></g>
<text x="438.0" y="153.0" font-size="12" font-weight="700" fill="#2E3440" text-anchor="start" font-family="'JetBrains Mono', Consolas, 'Courier New', monospace">worker</text>
<text x="408.0" y="178.0" font-size="10" font-weight="400" fill="#4C566A" text-anchor="start">same image as api</text>
<text x="408.0" y="193.0" font-size="10" font-weight="400" fill="#4C566A" text-anchor="start">no published port</text>
<rect x="222.0" y="236.0" width="160.0" height="88.0" rx="6" fill="#FFFFFF" stroke="#A3BE8C" stroke-width="1.3"/>
<rect x="232.0" y="246.0" width="24.0" height="24.0" rx="5" fill="#6E9A5B" stroke="none" stroke-width="1.2"/>
<g transform="translate(236.0,250.0) scale(0.6667)" fill="none" stroke="#FFFFFF" stroke-width="2.70" stroke-linecap="round" stroke-linejoin="round"><ellipse cx="12" cy="5.5" rx="7" ry="2.5"/><path d="M5 5.5v13c0 1.4 3.1 2.5 7 2.5s7-1.1 7-2.5v-13"/><path d="M5 12c0 1.4 3.1 2.5 7 2.5s7-1.1 7-2.5"/></g>
<text x="264.0" y="263.0" font-size="12" font-weight="700" fill="#2E3440" text-anchor="start" font-family="'JetBrains Mono', Consolas, 'Courier New', monospace">db</text>
<text x="234.0" y="288.0" font-size="10" font-weight="400" fill="#4C566A" text-anchor="start">pgvector/pgvector:pg17</text>
<text x="234.0" y="303.0" font-size="10" font-weight="400" fill="#4C566A" text-anchor="start">127.0.0.1:5433 → 5432</text>
<rect x="396.0" y="236.0" width="160.0" height="88.0" rx="6" fill="#FFFFFF" stroke="#B48EAD" stroke-width="1.3" stroke-dasharray="5 4"/>
<rect x="406.0" y="246.0" width="24.0" height="24.0" rx="5" fill="#8E6D95" stroke="none" stroke-width="1.2"/>
<g transform="translate(410.0,250.0) scale(0.6667)" fill="none" stroke="#FFFFFF" stroke-width="2.70" stroke-linecap="round" stroke-linejoin="round"><path d="M11 3l1.8 5.2L18 10l-5.2 1.8L11 17l-1.8-5.2L4 10l5.2-1.8z"/><path d="M18.5 15l.7 2 2 .7-2 .7-.7 2-.7-2-2-.7 2-.7z"/></g>
<text x="438.0" y="263.0" font-size="12" font-weight="700" fill="#2E3440" text-anchor="start" font-family="'JetBrains Mono', Consolas, 'Courier New', monospace">ollama</text>
<text x="408.0" y="288.0" font-size="10" font-weight="400" fill="#4C566A" text-anchor="start">qwen3:4b · profile</text>
<text x="408.0" y="303.0" font-size="10" font-weight="400" fill="#4C566A" text-anchor="start">local-llm (opt-in)</text>
<rect x="48.0" y="236.0" width="160.0" height="88.0" rx="6" fill="#ECEFF4" stroke="none" stroke-width="1.2"/>
<text x="60.0" y="258.0" font-size="11" font-weight="700" fill="#2E3440" text-anchor="start">Named volumes</text>
<text x="60.0" y="278.0" font-size="10" font-weight="400" fill="#4C566A" text-anchor="start">pgdata ← db</text>
<text x="60.0" y="291.5" font-size="10" font-weight="400" fill="#4C566A" text-anchor="start">uploads ← api, worker</text>
<text x="60.0" y="305.0" font-size="10" font-weight="400" fill="#4C566A" text-anchor="start">model-cache ← worker</text>
<text x="60.0" y="318.5" font-size="10" font-weight="400" fill="#4C566A" text-anchor="start">ollama ← ollama</text>
<path d="M208.0,170.0 L222.0,170.0" fill="none" stroke="#4C566A" stroke-width="1.4" stroke-linejoin="round" marker-end="url(#m-arrow-4C566A)"/>
<path d="M302.0,214.0 L302.0,236.0" fill="none" stroke="#4C566A" stroke-width="1.4" stroke-linejoin="round" marker-end="url(#m-arrow-4C566A)"/>
<path d="M476.0,214.0 L476.0,219.5 Q476.0,225.0 470.5,225.0 L347.5,225.0 Q342.0,225.0 342.0,230.5 L342.0,236.0" fill="none" stroke="#4C566A" stroke-width="1.4" stroke-linejoin="round" marker-end="url(#m-arrow-4C566A)"/>
<text x="48.0" y="364.0" font-size="10.5" font-weight="650" fill="#4C566A" text-anchor="start">Published ports — bound to 127.0.0.1, not reachable from the LAN</text>
<rect x="48.0" y="376.0" width="120.0" height="26.0" rx="13" fill="#ECEFF4" stroke="#D8DEE9" stroke-width="1.2"/>
<text x="60.0" y="393.0" font-size="10.5" font-weight="700" fill="#2E3440" text-anchor="start" font-family="'JetBrains Mono', Consolas, 'Courier New', monospace">:5173</text>
<text x="112.0" y="393.0" font-size="10.5" font-weight="400" fill="#4C566A" text-anchor="start">web</text>
<rect x="178.0" y="376.0" width="120.0" height="26.0" rx="13" fill="#ECEFF4" stroke="#D8DEE9" stroke-width="1.2"/>
<text x="190.0" y="393.0" font-size="10.5" font-weight="700" fill="#2E3440" text-anchor="start" font-family="'JetBrains Mono', Consolas, 'Courier New', monospace">:8000</text>
<text x="242.0" y="393.0" font-size="10.5" font-weight="400" fill="#4C566A" text-anchor="start">api</text>
<rect x="308.0" y="376.0" width="120.0" height="26.0" rx="13" fill="#ECEFF4" stroke="#D8DEE9" stroke-width="1.2"/>
<text x="320.0" y="393.0" font-size="10.5" font-weight="700" fill="#2E3440" text-anchor="start" font-family="'JetBrains Mono', Consolas, 'Courier New', monospace">:5433</text>
<text x="372.0" y="393.0" font-size="10.5" font-weight="400" fill="#4C566A" text-anchor="start">db</text>
<rect x="438.0" y="376.0" width="120.0" height="26.0" rx="13" fill="#ECEFF4" stroke="#D8DEE9" stroke-width="1.2"/>
<text x="450.0" y="393.0" font-size="10.5" font-weight="700" fill="#2E3440" text-anchor="start" font-family="'JetBrains Mono', Consolas, 'Courier New', monospace">:11434</text>
<text x="502.0" y="393.0" font-size="10.5" font-weight="400" fill="#4C566A" text-anchor="start">ollama</text>
<path d="M556.0,170.0 L567.0,170.0 Q574.0,170.0 574.0,177.0 L574.0,476.0" fill="none" stroke="#C06B47" stroke-width="1.4" stroke-linejoin="round" marker-end="url(#m-arrow-C06B47)"/>
<rect x="6.0" y="462.0" width="590.0" height="90.0" rx="4" fill="#D08770" fill-opacity="0.06" stroke="#D08770" stroke-width="1.5" stroke-dasharray="6 4"/>
<rect x="6.0" y="462.0" width="28.0" height="28.0" rx="0" fill="#C06B47" stroke="none" stroke-width="1.2"/>
<g transform="translate(11.0,467.0) scale(0.7500)" fill="none" stroke="#FFFFFF" stroke-width="2.40" stroke-linecap="round" stroke-linejoin="round"><circle cx="12" cy="12" r="9"/><ellipse cx="12" cy="12" rx="4" ry="9"/><path d="M3 12h18"/></g>
<text x="44.0" y="480.5" font-size="12.5" font-weight="600" fill="#2E3440" text-anchor="start">Egress · HTTPS 443</text>
<rect x="30.0" y="502.0" width="34.0" height="34.0" rx="6" fill="#C06B47" stroke="none" stroke-width="1.2"/>
<g transform="translate(36.8,508.8) scale(0.8500)" fill="none" stroke="#FFFFFF" stroke-width="2.00" stroke-linecap="round" stroke-linejoin="round"><path d="M11 3l1.8 5.2L18 10l-5.2 1.8L11 17l-1.8-5.2L4 10l5.2-1.8z"/><path d="M18.5 15l.7 2 2 .7-2 .7-.7 2-.7-2-2-.7 2-.7z"/></g>
<text x="73.0" y="516.0" font-size="11.5" font-weight="650" fill="#2E3440" text-anchor="start">LLM API</text>
<text x="73.0" y="530.0" font-size="10" font-weight="400" fill="#6B7385" text-anchor="start">explanations</text>
<rect x="222.0" y="502.0" width="34.0" height="34.0" rx="6" fill="#C06B47" stroke="none" stroke-width="1.2"/>
<g transform="translate(228.8,508.8) scale(0.8500)" fill="none" stroke="#FFFFFF" stroke-width="2.00" stroke-linecap="round" stroke-linejoin="round"><path d="M4 9h4l5-4v14l-5-4H4z"/><path d="M16.5 8.5a5 5 0 0 1 0 7M19 6a8.5 8.5 0 0 1 0 12"/></g>
<text x="265.0" y="516.0" font-size="11.5" font-weight="650" fill="#2E3440" text-anchor="start">TTS API</text>
<text x="265.0" y="530.0" font-size="10" font-weight="400" fill="#6B7385" text-anchor="start">optional</text>
<rect x="400.0" y="502.0" width="34.0" height="34.0" rx="6" fill="#C06B47" stroke="none" stroke-width="1.2"/>
<g transform="translate(406.8,508.8) scale(0.8500)" fill="none" stroke="#FFFFFF" stroke-width="2.00" stroke-linecap="round" stroke-linejoin="round"><path d="M7 18.5h10.5a4 4 0 0 0 .3-8A6 6 0 0 0 6.2 11 3.8 3.8 0 0 0 7 18.5z"/></g>
<text x="443.0" y="516.0" font-size="11.5" font-weight="650" fill="#2E3440" text-anchor="start">Model registries</text>
<text x="443.0" y="530.0" font-size="10" font-weight="400" fill="#6B7385" text-anchor="start">first run only</text>
</g>
</svg>
