<svg xmlns="http://www.w3.org/2000/svg" width="15.93cm" height="20.11cm" viewBox="0 0 602 760" role="img">
<defs><marker id="m-open-4C566A" viewBox="0 0 11 10" refX="10" refY="5" markerWidth="9" markerHeight="9" orient="auto-start-reverse"><path d="M1,1 L10,5 L1,9" fill="none" stroke="#4C566A" stroke-width="1.4"/></marker><marker id="m-arrow-4C566A" viewBox="0 0 10 10" refX="9" refY="5" markerWidth="7" markerHeight="7" orient="auto-start-reverse"><path d="M0,0 L10,5 L0,10 z" fill="#4C566A"/></marker></defs>
<g font-family="Inter, 'Segoe UI', 'Helvetica Neue', Helvetica, Arial, sans-serif">
<rect width="602" height="760" fill="#FFFFFF"/>
<rect x="96.0" y="4.0" width="432.0" height="690.0" rx="8" fill="#ECEFF4" fill-opacity="0.5" stroke="#4C566A" stroke-width="1.2"/>
<text x="110.0" y="22.0" font-size="12.5" font-weight="700" fill="#2E3440" text-anchor="start">Nabz</text>
<ellipse cx="208" cy="52" rx="94" ry="22" fill="#FFFFFF" stroke="#5E81AC" stroke-width="1.4"/>
<text x="208.0" y="49.0" font-size="9.5" font-weight="600" fill="#5E81AC" text-anchor="middle">UC-01</text>
<text x="208.0" y="63.0" font-size="10.5" font-weight="600" fill="#2E3440" text-anchor="middle">Sign up / sign in</text>
<ellipse cx="208" cy="108" rx="94" ry="22" fill="#FFFFFF" stroke="#5E81AC" stroke-width="1.4"/>
<text x="208.0" y="105.0" font-size="9.5" font-weight="600" fill="#5E81AC" text-anchor="middle">UC-02</text>
<text x="208.0" y="119.0" font-size="10.5" font-weight="600" fill="#2E3440" text-anchor="middle">Manage family profiles</text>
<ellipse cx="208" cy="164" rx="94" ry="22" fill="#FFFFFF" stroke="#5E81AC" stroke-width="1.4"/>
<text x="208.0" y="161.0" font-size="9.5" font-weight="600" fill="#5E81AC" text-anchor="middle">UC-04</text>
<text x="208.0" y="175.0" font-size="10.5" font-weight="600" fill="#2E3440" text-anchor="middle">Upload a lab report</text>
<ellipse cx="208" cy="220" rx="94" ry="22" fill="#FFFFFF" stroke="#5E81AC" stroke-width="1.4"/>
<text x="208.0" y="217.0" font-size="9.5" font-weight="600" fill="#5E81AC" text-anchor="middle">UC-05</text>
<text x="208.0" y="231.0" font-size="10.5" font-weight="600" fill="#2E3440" text-anchor="middle">Review &amp; correct values</text>
<ellipse cx="208" cy="276" rx="94" ry="22" fill="#FFFFFF" stroke="#5E81AC" stroke-width="1.4"/>
<text x="208.0" y="273.0" font-size="9.5" font-weight="600" fill="#5E81AC" text-anchor="middle">UC-06</text>
<text x="208.0" y="287.0" font-size="10.5" font-weight="600" fill="#2E3440" text-anchor="middle">Explore 3D body map</text>
<ellipse cx="208" cy="332" rx="94" ry="22" fill="#FFFFFF" stroke="#5E81AC" stroke-width="1.4"/>
<text x="208.0" y="329.0" font-size="9.5" font-weight="600" fill="#5E81AC" text-anchor="middle">UC-07</text>
<text x="208.0" y="343.0" font-size="10.5" font-weight="600" fill="#2E3440" text-anchor="middle">View trends</text>
<ellipse cx="208" cy="388" rx="94" ry="22" fill="#FFFFFF" stroke="#5E81AC" stroke-width="1.4"/>
<text x="208.0" y="385.0" font-size="9.5" font-weight="600" fill="#5E81AC" text-anchor="middle">UC-08</text>
<text x="208.0" y="399.0" font-size="10.5" font-weight="600" fill="#2E3440" text-anchor="middle">Read the explanation</text>
<ellipse cx="208" cy="444" rx="94" ry="22" fill="#FFFFFF" stroke="#5E81AC" stroke-width="1.4"/>
<text x="208.0" y="441.0" font-size="9.5" font-weight="600" fill="#5E81AC" text-anchor="middle">UC-11</text>
<text x="208.0" y="455.0" font-size="10.5" font-weight="600" fill="#2E3440" text-anchor="middle">Share with a doctor</text>
<ellipse cx="208" cy="500" rx="94" ry="22" fill="#FFFFFF" stroke="#5E81AC" stroke-width="1.4"/>
<text x="208.0" y="497.0" font-size="9.5" font-weight="600" fill="#5E81AC" text-anchor="middle">UC-12</text>
<text x="208.0" y="511.0" font-size="10.5" font-weight="600" fill="#2E3440" text-anchor="middle">Export / delete data</text>
<circle cx="44" cy="260" r="10" fill="#FFFFFF" stroke="#2E3440" stroke-width="1.6"/><path d="M44,270 V300 M27,280 H61 M44,300 L31,324 M44,300 L57,324" stroke="#2E3440" stroke-width="1.6" fill="none" stroke-linecap="round"/>
<text x="44.0" y="344.0" font-size="12.5" font-weight="650" fill="#2E3440" text-anchor="middle">Patient /</text>
<text x="44.0" y="360.0" font-size="12.5" font-weight="650" fill="#2E3440" text-anchor="middle">caregiver</text>
<line x1="62.0" y1="284.0" x2="114.0" y2="52.0" stroke="#4C566A" stroke-width="1.1"/>
<line x1="62.0" y1="284.0" x2="114.0" y2="108.0" stroke="#4C566A" stroke-width="1.1"/>
<line x1="62.0" y1="284.0" x2="114.0" y2="164.0" stroke="#4C566A" stroke-width="1.1"/>
<line x1="62.0" y1="284.0" x2="114.0" y2="220.0" stroke="#4C566A" stroke-width="1.1"/>
<line x1="62.0" y1="284.0" x2="114.0" y2="276.0" stroke="#4C566A" stroke-width="1.1"/>
<line x1="62.0" y1="284.0" x2="114.0" y2="332.0" stroke="#4C566A" stroke-width="1.1"/>
<line x1="62.0" y1="284.0" x2="114.0" y2="388.0" stroke="#4C566A" stroke-width="1.1"/>
<line x1="62.0" y1="284.0" x2="114.0" y2="444.0" stroke="#4C566A" stroke-width="1.1"/>
<line x1="62.0" y1="284.0" x2="114.0" y2="500.0" stroke="#4C566A" stroke-width="1.1"/>
<ellipse cx="420" cy="52" rx="94" ry="22" fill="#FFFFFF" stroke="#D08770" stroke-width="1.4"/>
<text x="420.0" y="49.0" font-size="9.5" font-weight="600" fill="#C06B47" text-anchor="middle">UC-14</text>
<text x="420.0" y="63.0" font-size="10.5" font-weight="600" fill="#2E3440" text-anchor="middle">Curate test catalogue</text>
<ellipse cx="420" cy="108" rx="94" ry="22" fill="#FFFFFF" stroke="#D08770" stroke-width="1.4"/>
<text x="420.0" y="105.0" font-size="9.5" font-weight="600" fill="#C06B47" text-anchor="middle">UC-15</text>
<text x="420.0" y="119.0" font-size="10.5" font-weight="600" fill="#2E3440" text-anchor="middle">Manage knowledge base</text>
<ellipse cx="420" cy="164" rx="94" ry="22" fill="#FFFFFF" stroke="#A3BE8C" stroke-width="1.4"/>
<text x="420.0" y="161.0" font-size="9.5" font-weight="600" fill="#6E9A5B" text-anchor="middle">UC-03</text>
<text x="420.0" y="175.0" font-size="10.5" font-weight="600" fill="#2E3440" text-anchor="middle">Give / withdraw consent</text>
<ellipse cx="420" cy="220" rx="94" ry="22" fill="#FFFFFF" stroke="#BF616A" stroke-width="1.4"/>
<text x="420.0" y="217.0" font-size="9.5" font-weight="600" fill="#BF616A" text-anchor="middle">UC-13</text>
<text x="420.0" y="231.0" font-size="10.5" font-weight="600" fill="#2E3440" text-anchor="middle">Critical-value alert</text>
<ellipse cx="420" cy="276" rx="94" ry="22" fill="#FFFFFF" stroke="#D08770" stroke-width="1.4"/>
<text x="420.0" y="273.0" font-size="9.5" font-weight="600" fill="#C06B47" text-anchor="middle">UC-16</text>
<text x="420.0" y="287.0" font-size="10.5" font-weight="600" fill="#2E3440" text-anchor="middle">Audit &amp; safety reports</text>
<ellipse cx="420" cy="332" rx="94" ry="22" fill="#FFFFFF" stroke="#5E81AC" stroke-width="1.4"/>
<text x="420.0" y="329.0" font-size="9.5" font-weight="600" fill="#5E81AC" text-anchor="middle">UC-10</text>
<text x="420.0" y="343.0" font-size="10.5" font-weight="600" fill="#2E3440" text-anchor="middle">Questions for the doctor</text>
<ellipse cx="420" cy="388" rx="94" ry="22" fill="#FFFFFF" stroke="#B48EAD" stroke-width="1.4"/>
<text x="420.0" y="385.0" font-size="9.5" font-weight="600" fill="#8E6D95" text-anchor="middle">UC-18</text>
<text x="420.0" y="399.0" font-size="10.5" font-weight="600" fill="#2E3440" text-anchor="middle">Grounded explanation</text>
<ellipse cx="420" cy="444" rx="94" ry="22" fill="#FFFFFF" stroke="#B48EAD" stroke-width="1.4"/>
<text x="420.0" y="441.0" font-size="9.5" font-weight="600" fill="#8E6D95" text-anchor="middle">UC-09</text>
<text x="420.0" y="455.0" font-size="10.5" font-weight="600" fill="#2E3440" text-anchor="middle">Listen to explanation</text>
<ellipse cx="420" cy="584" rx="94" ry="22" fill="#FFFFFF" stroke="#88C0D0" stroke-width="1.4"/>
<text x="420.0" y="581.0" font-size="9.5" font-weight="600" fill="#4F97AE" text-anchor="middle">UC-17</text>
<text x="420.0" y="595.0" font-size="10.5" font-weight="600" fill="#2E3440" text-anchor="middle">View shared summary</text>
<path d="M302.0,164.0 L326.0,164.0" fill="none" stroke="#4C566A" stroke-width="1.1" stroke-linejoin="round" stroke-dasharray="4 3" marker-end="url(#m-open-4C566A)"/>
<rect x="287.0" y="155.0" width="54.0" height="18.0" rx="9" fill="#FFFFFF" stroke="none" stroke-width="1.2"/>
<text x="314.0" y="167.7" font-size="9.5" font-weight="500" fill="#6B7385" text-anchor="middle">«include»</text>
<path d="M326.0,220.0 L302.0,220.0" fill="none" stroke="#4C566A" stroke-width="1.1" stroke-linejoin="round" stroke-dasharray="4 3" marker-end="url(#m-open-4C566A)"/>
<rect x="286.7" y="211.0" width="54.6" height="18.0" rx="9" fill="#FFFFFF" stroke="none" stroke-width="1.2"/>
<text x="314.0" y="223.7" font-size="9.5" font-weight="500" fill="#6B7385" text-anchor="middle">«extend»</text>
<path d="M288.0,385.0 L332.0,340.0" fill="none" stroke="#4C566A" stroke-width="1.1" stroke-linejoin="round" stroke-dasharray="4 3" marker-end="url(#m-open-4C566A)"/>
<rect x="287.0" y="347.0" width="54.0" height="18.0" rx="9" fill="#FFFFFF" stroke="none" stroke-width="1.2"/>
<text x="314.0" y="359.7" font-size="9.5" font-weight="500" fill="#6B7385" text-anchor="middle">«include»</text>
<path d="M302.0,388.0 L326.0,388.0" fill="none" stroke="#4C566A" stroke-width="1.1" stroke-linejoin="round" stroke-dasharray="4 3" marker-end="url(#m-open-4C566A)"/>
<rect x="287.0" y="385.0" width="54.0" height="18.0" rx="9" fill="#FFFFFF" stroke="none" stroke-width="1.2"/>
<text x="314.0" y="397.7" font-size="9.5" font-weight="500" fill="#6B7385" text-anchor="middle">«include»</text>
<path d="M332.0,452.0 L288.0,399.0" fill="none" stroke="#4C566A" stroke-width="1.1" stroke-linejoin="round" stroke-dasharray="4 3" marker-end="url(#m-open-4C566A)"/>
<rect x="286.7" y="421.0" width="54.6" height="18.0" rx="9" fill="#FFFFFF" stroke="none" stroke-width="1.2"/>
<text x="314.0" y="433.7" font-size="9.5" font-weight="500" fill="#6B7385" text-anchor="middle">«extend»</text>
<circle cx="44" cy="560" r="10" fill="#FFFFFF" stroke="#2E3440" stroke-width="1.6"/><path d="M44,570 V600 M27,580 H61 M44,600 L31,624 M44,600 L57,624" stroke="#2E3440" stroke-width="1.6" fill="none" stroke-linecap="round"/>
<text x="44.0" y="644.0" font-size="12.5" font-weight="650" fill="#2E3440" text-anchor="middle">Doctor</text>
<line x1="62.0" y1="584.0" x2="326.0" y2="584.0" stroke="#4C566A" stroke-width="1.1"/>
<text x="420.0" y="620.0" font-size="9.5" font-weight="400" fill="#6B7385" text-anchor="middle" font-style="italic">expiring link · no account</text>
<circle cx="568" cy="70" r="10" fill="#FFFFFF" stroke="#2E3440" stroke-width="1.6"/><path d="M568,80 V110 M551,90 H585 M568,110 L555,134 M568,110 L581,134" stroke="#2E3440" stroke-width="1.6" fill="none" stroke-linecap="round"/>
<text x="568.0" y="154.0" font-size="12.5" font-weight="650" fill="#2E3440" text-anchor="middle">Admin</text>
<line x1="552.0" y1="96.0" x2="514.0" y2="52.0" stroke="#4C566A" stroke-width="1.1"/>
<line x1="552.0" y1="96.0" x2="514.0" y2="108.0" stroke="#4C566A" stroke-width="1.1"/>
<line x1="552.0" y1="96.0" x2="514.0" y2="276.0" stroke="#4C566A" stroke-width="1.1"/>
<rect x="536.0" y="368.0" width="62.0" height="40.0" rx="5" fill="#FFFFFF" stroke="#B48EAD" stroke-width="1.3"/>
<text x="567.0" y="383.0" font-size="9" font-weight="500" fill="#6B7385" text-anchor="middle">«system»</text>
<text x="567.0" y="398.0" font-size="10.5" font-weight="700" fill="#2E3440" text-anchor="middle">LLM API</text>
<line x1="536.0" y1="388.0" x2="514.0" y2="388.0" stroke="#4C566A" stroke-width="1.1"/>
<rect x="536.0" y="424.0" width="62.0" height="40.0" rx="5" fill="#FFFFFF" stroke="#B48EAD" stroke-width="1.3"/>
<text x="567.0" y="439.0" font-size="9" font-weight="500" fill="#6B7385" text-anchor="middle">«system»</text>
<text x="567.0" y="454.0" font-size="10.5" font-weight="700" fill="#2E3440" text-anchor="middle">TTS API</text>
<line x1="536.0" y1="444.0" x2="514.0" y2="444.0" stroke="#4C566A" stroke-width="1.1"/>
<rect x="110.0" y="648.0" width="404.0" height="36.0" rx="6" fill="#FFFFFF" stroke="#BF616A" stroke-width="1.1"/>
<text x="122.0" y="670.0" font-size="10.5" font-weight="600" fill="#BF616A" text-anchor="start">Out of scope: diagnosis · prescribing or dosing · emergency triage</text>
<path d="M96.0,730.0 L122.0,730.0" fill="none" stroke="#4C566A" stroke-width="1.4" stroke-linejoin="round" marker-end="url(#m-arrow-4C566A)"/>
<text x="130.0" y="734.0" font-size="11" font-weight="400" fill="#4C566A" text-anchor="start">association</text>
<path d="M217.0,730.0 L243.0,730.0" fill="none" stroke="#4C566A" stroke-width="1.4" stroke-linejoin="round" stroke-dasharray="5 4" marker-end="url(#m-arrow-4C566A)"/>
<text x="251.0" y="734.0" font-size="11" font-weight="400" fill="#4C566A" text-anchor="start">«include» / «extend»</text>
</g>
</svg>
